<svg width="180" height="40" viewBox="0 0 180 40" fill="none" xmlns="http://www.w3.org/2000/svg">
  <!-- Icon part -->
  <rect x="1" y="1" width="38" height="38" rx="8" fill="#1E5A96" stroke="#1E5A96" stroke-width="2"/>
  <rect x="4" y="4" width="32" height="32" rx="6" fill="#FFFFFF"/>
  <rect x="8" y="10" width="16" height="2" rx="1" fill="#2B8CE6"/>
  <rect x="8" y="15" width="12" height="2" rx="1" fill="#2B8CE6"/>
  <rect x="8" y="20" width="8" height="2" rx="1" fill="#2B8CE6"/>
  <path d="M26 8L32 14L28 18L22 12L26 8Z" fill="#2B8CE6"/>
  <path d="M21 13L27 19L24 22L18 16L21 13Z" fill="#49A3E8"/>
  <path d="M17 17L23 23L20 26L17 23L17 17Z" fill="#2B8CE6"/>
  <circle cx="28" cy="16" r="2" fill="#1E5A96"/>
  
  <!-- Text "Noet" -->
  <text x="50" y="28" font-family="system-ui, -apple-system, sans-serif" font-size="24" font-weight="600" fill="#1E3A5F">
    Noet
  </text>
</svg>
